<svg width="23" height="22" viewBox="0 0 23 22" fill="none" xmlns="http://www.w3.org/2000/svg">
<path d="M9.39527 15.2182C8.93921 14.0947 7.837 13.3023 6.54974 13.3023C4.85435 13.3023 3.47997 14.6767 3.47997 16.3721C3.47997 17.6436 2.44916 18.6744 1.17762 18.6744C1.12575 18.6744 1.07427 18.6727 1.02326 18.6693C1.81869 20.0485 3.30835 20.9767 5.01483 20.9767C7.55069 20.9767 9.60778 18.9269 9.61943 16.3937C9.61948 16.3865 9.6195 16.3793 9.6195 16.3721C9.6195 15.964 9.53986 15.5745 9.39527 15.2182ZM9.39527 15.2182C10.6174 14.8017 11.7798 14.2442 12.8606 13.561M7.7009 13.5345C8.11767 12.3095 8.67617 11.1444 9.36087 10.0612M12.8606 13.561C14.7849 12.3446 16.4506 10.7301 17.7346 8.80415L21.7007 2.85495C21.8297 2.66141 21.8986 2.43402 21.8986 2.20142C21.8986 1.55074 21.3711 1.02326 20.7204 1.02326C20.4878 1.02326 20.2604 1.09211 20.0669 1.22113L14.1177 5.18726C12.1918 6.4712 10.5772 8.13697 9.36087 10.0612M12.8606 13.561C12.167 12.0061 10.9157 10.7548 9.36087 10.0612" stroke="white" stroke-width="2" stroke-linecap="round" stroke-linejoin="round"/>
</svg>
