<svg width="20" height="22" viewBox="0 0 20 22" fill="none" xmlns="http://www.w3.org/2000/svg">
<path d="M5.21721 9.6571C4.83295 8.96691 4.096 8.5 3.25 8.5C2.00736 8.5 1 9.50736 1 10.75C1 11.9926 2.00736 13 3.25 13C4.096 13 4.83295 12.5331 5.21721 11.8429M5.21721 9.6571C5.39737 9.98069 5.5 10.3534 5.5 10.75C5.5 11.1466 5.39737 11.5193 5.21721 11.8429M5.21721 9.6571L14.7828 4.3429M5.21721 11.8429L14.7828 17.1571M14.7828 17.1571C14.6026 17.4807 14.5 17.8534 14.5 18.25C14.5 19.4926 15.5074 20.5 16.75 20.5C17.9926 20.5 19 19.4926 19 18.25C19 17.0074 17.9926 16 16.75 16C15.904 16 15.1671 16.4669 14.7828 17.1571ZM14.7828 4.3429C15.1671 5.03309 15.904 5.5 16.75 5.5C17.9926 5.5 19 4.49264 19 3.25C19 2.00736 17.9926 1 16.75 1C15.5074 1 14.5 2.00736 14.5 3.25C14.5 3.64664 14.6026 4.01931 14.7828 4.3429Z" stroke="white" stroke-width="2" stroke-linecap="round" stroke-linejoin="round"/>
</svg>
