<svg width="19" height="20" viewBox="0 0 19 20" fill="none" xmlns="http://www.w3.org/2000/svg">
<path d="M5.51844 2.24442C6.70505 1.4585 8.12802 1.00082 9.65789 1.00082C13.8034 1.00082 17.164 4.36142 17.164 8.50693C17.164 11.4287 16.6079 14.2205 15.5951 16.7822M3.39539 4.36747C2.60947 5.55409 2.15178 6.97706 2.15178 8.50693C2.15178 9.97579 1.73018 11.3461 1.00094 12.5033M2.99135 16.0651C4.80205 14.067 5.90484 11.4158 5.90484 8.50693C5.90484 6.43418 7.58514 4.75387 9.65789 4.75387C11.7307 4.75387 13.411 6.43418 13.411 8.50693C13.411 9.03427 13.3895 9.55652 13.3469 10.0728M9.65821 8.50693C9.65821 12.2326 8.30104 15.6412 6.05412 18.2655M12.6933 13.6654C12.1451 15.587 11.2983 17.3827 10.2062 18.9991" stroke="white" stroke-width="2" stroke-linecap="round" stroke-linejoin="round"/>
</svg>
