<svg width="22" height="20" viewBox="0 0 22 20" fill="none" xmlns="http://www.w3.org/2000/svg">
<path d="M8.60483 1.10408V6.81802C8.60483 7.41476 8.36778 7.98705 7.94582 8.40901L3.85483 12.5M8.60483 1.10408C8.35369 1.12743 8.10367 1.15465 7.85483 1.18568M8.60483 1.10408C9.34558 1.03521 10.0961 1 10.8548 1C11.6136 1 12.3641 1.03521 13.1048 1.10408M13.1048 1.10408V6.81802C13.1048 7.41476 13.3419 7.98705 13.7638 8.40901L18.6548 13.3M13.1048 1.10408C13.356 1.12743 13.606 1.15465 13.8548 1.18568M18.6548 13.3L17.0847 13.6925C15.0005 14.2136 12.7764 13.9608 10.8548 13C8.93324 12.0392 6.70918 11.7864 4.62492 12.3075L3.85483 12.5M18.6548 13.3L20.057 14.7022C21.2889 15.9341 20.7076 18.0202 18.9902 18.3134C16.3459 18.7649 13.6278 19 10.8548 19C8.08182 19 5.36373 18.7649 2.71942 18.3134C1.0021 18.0202 0.420734 15.9341 1.65263 14.7022L3.85483 12.5" stroke="white" stroke-width="2" stroke-linecap="round" stroke-linejoin="round"/>
</svg>
