<svg width="24" height="26" viewBox="0 0 24 26" fill="none" xmlns="http://www.w3.org/2000/svg">
<path d="M7.02442 2.65902C8.6066 1.6111 10.5039 1.00084 12.5438 1.00084C18.0713 1.00084 22.5522 5.48173 22.5522 11.0092C22.5522 14.905 21.8106 18.6275 20.4603 22.0431M4.19362 5.48981C3.14571 7.072 2.53544 8.96933 2.53544 11.0092C2.53544 12.9677 1.9733 14.7948 1.00096 16.3378M3.6549 21.0869C6.06922 18.4228 7.53963 14.8878 7.53963 11.0092C7.53963 8.24547 9.78007 6.00502 12.5438 6.00502C15.3075 6.00502 17.548 8.24547 17.548 11.0092C17.548 11.7123 17.5194 12.4087 17.4625 13.0971M12.5442 11.0092C12.5442 15.9768 10.7346 20.5218 7.73868 24.0209M16.5912 17.8873C15.8602 20.4495 14.7311 22.8438 13.275 24.999" stroke="white" stroke-width="2" stroke-linecap="round" stroke-linejoin="round"/>
</svg>
